<svg width="803" height="323" viewBox="0 0 803 323" fill="none" xmlns="http://www.w3.org/2000/svg">
<path d="M781.309 22.7412C687.24 101.608 558.645 166.335 418.123 217.096" stroke="url(#paint0_linear_1430_561)" stroke-width="7"/>
<path d="M801 11.2173C804.261 17.4124 801.271 24.7911 794.321 27.6982C787.372 30.6052 779.095 27.9397 775.834 21.7446C772.573 15.5495 775.563 8.17073 782.512 5.2637C789.462 2.35666 797.739 5.02218 801 11.2173ZM779.236 20.3214C781.615 24.8415 787.655 26.7863 792.725 24.6653C797.795 22.5443 799.977 17.1606 797.598 12.6405C795.218 8.12037 789.179 6.17555 784.109 8.29659C779.039 10.4176 776.857 15.8013 779.236 20.3214Z" fill="#30C2E2"/>
<ellipse cx="5.24591" cy="4.83115" rx="5.24591" ry="4.83115" transform="matrix(0.922534 -0.385916 0.465784 0.884898 781.309 14.1914)" fill="#30C2E2"/>
<g filter="url(#filter0_d_1430_561)">
<path d="M418.211 215.234C421.472 221.429 418.482 228.808 411.532 231.715C404.583 234.622 396.306 231.956 393.045 225.761C389.784 219.566 392.774 212.187 399.723 209.28C406.673 206.373 414.95 209.039 418.211 215.234ZM396.447 224.338C398.826 228.858 404.865 230.803 409.936 228.682C415.006 226.561 417.188 221.177 414.808 216.657C412.429 212.137 406.39 210.192 401.32 212.313C396.249 214.434 394.068 219.818 396.447 224.338Z" fill="#1F5B87"/>
</g>
<g filter="url(#filter1_d_1430_561)">
<ellipse cx="5.24591" cy="4.83115" rx="5.24591" ry="4.83115" transform="matrix(0.922534 -0.385916 0.465784 0.884898 398.518 218.208)" fill="#1F5B87"/>
</g>
<path d="M31.0973 300.826C34.3582 307.021 31.3682 314.4 24.4189 317.307C17.4697 320.214 9.19268 317.548 5.93176 311.353C2.67084 305.158 5.66084 297.779 12.6101 294.872C19.5594 291.965 27.8364 294.631 31.0973 300.826ZM9.33386 309.93C11.7131 314.45 17.7522 316.395 22.8225 314.274C27.8929 312.153 30.0744 306.769 27.6952 302.249C25.316 297.729 19.2769 295.784 14.2065 297.905C9.13619 300.026 6.95462 305.41 9.33386 309.93Z" fill="#063E67"/>
<ellipse cx="5.24591" cy="4.83115" rx="5.24591" ry="4.83115" transform="matrix(0.922534 -0.385916 0.465784 0.884898 11.4043 303.8)" fill="#063E67"/>
<path d="M29.4043 304.93C145.407 291.092 276.545 264.466 395.641 224.859" stroke="url(#paint1_linear_1430_561)" stroke-width="7"/>
<defs>
<filter id="filter0_d_1430_561" x="341.725" y="162.104" width="127.807" height="124.788" filterUnits="userSpaceOnUse" color-interpolation-filters="sRGB">
<feFlood flood-opacity="0" result="BackgroundImageFix"/>
<feColorMatrix in="SourceAlpha" type="matrix" values="0 0 0 0 0 0 0 0 0 0 0 0 0 0 0 0 0 0 127 0" result="hardAlpha"/>
<feMorphology radius="10" operator="dilate" in="SourceAlpha" result="effect1_dropShadow_1430_561"/>
<feOffset dy="4"/>
<feGaussianBlur stdDeviation="20"/>
<feComposite in2="hardAlpha" operator="out"/>
<feColorMatrix type="matrix" values="0 0 0 0 0.168 0 0 0 0 0.408497 0 0 0 0 0.79579 0 0 0 0.2 0"/>
<feBlend mode="normal" in2="BackgroundImageFix" result="effect1_dropShadow_1430_561"/>
<feBlend mode="normal" in="SourceGraphic" in2="effect1_dropShadow_1430_561" result="shape"/>
</filter>
<filter id="filter1_d_1430_561" x="350.27" y="169.728" width="110.676" height="109.462" filterUnits="userSpaceOnUse" color-interpolation-filters="sRGB">
<feFlood flood-opacity="0" result="BackgroundImageFix"/>
<feColorMatrix in="SourceAlpha" type="matrix" values="0 0 0 0 0 0 0 0 0 0 0 0 0 0 0 0 0 0 127 0" result="hardAlpha"/>
<feMorphology radius="10" operator="dilate" in="SourceAlpha" result="effect1_dropShadow_1430_561"/>
<feOffset dy="4"/>
<feGaussianBlur stdDeviation="20"/>
<feComposite in2="hardAlpha" operator="out"/>
<feColorMatrix type="matrix" values="0 0 0 0 0.168 0 0 0 0 0.408497 0 0 0 0 0.79579 0 0 0 0.2 0"/>
<feBlend mode="normal" in2="BackgroundImageFix" result="effect1_dropShadow_1430_561"/>
<feBlend mode="normal" in="SourceGraphic" in2="effect1_dropShadow_1430_561" result="shape"/>
</filter>
<linearGradient id="paint0_linear_1430_561" x1="435.201" y1="209.883" x2="745.068" y2="-18.7189" gradientUnits="userSpaceOnUse">
<stop stop-color="#1F5B87"/>
<stop offset="1" stop-color="#30C2E2"/>
</linearGradient>
<linearGradient id="paint1_linear_1430_561" x1="29.4043" y1="304.93" x2="389.198" y2="188.251" gradientUnits="userSpaceOnUse">
<stop stop-color="#063E67"/>
<stop offset="0.44" stop-color="#1F5B87"/>
</linearGradient>
</defs>
</svg>
