<svg width="33" height="33" viewBox="0 0 33 33" fill="none" xmlns="http://www.w3.org/2000/svg">
<circle cx="16.5508" cy="16.3555" r="16" fill="#171717"/>
<path d="M28.0741 13.5304C27.3831 11.6387 25.892 10.1471 23.9645 9.4377C21.4368 8.51002 18.8183 8.85563 16.7452 10.3836L16.5452 10.5291L16.4361 10.4563C14.3631 8.85563 11.69 8.49183 9.14414 9.4377C7.23477 10.1471 5.74365 11.6205 5.03445 13.5122C4.12523 15.9497 4.39799 18.5326 5.81638 20.5699C7.21658 22.589 9.48964 23.7895 11.9264 23.7895C13.6902 23.7895 15.0359 23.3347 16.4361 22.2615C16.4725 22.2434 16.5088 22.2252 16.527 22.2252C16.5998 22.2252 16.6543 22.2797 16.7634 22.3343C18.1273 23.2984 19.6002 23.7895 21.1459 23.7895C23.6371 23.7895 25.8738 22.6617 27.2558 20.679C28.6924 18.6418 28.9834 16.0406 28.0741 13.5304ZM26.0557 17.896C25.5829 19.5149 24.2736 20.7882 22.6552 21.2611C21.2732 21.6431 19.8548 21.4794 18.6546 20.7882C18.5637 20.7336 18.5091 20.6608 18.5091 20.5517C18.4909 20.4426 18.5273 20.3516 18.6182 20.2788L21.3459 17.7868C21.455 17.6777 21.6368 17.6777 21.746 17.7687C22.1278 18.0597 22.3642 18.1688 22.4551 18.1688L23.2007 14.9674C23.2189 14.8583 23.2007 14.7491 23.128 14.6764C23.0552 14.5854 22.9461 14.549 22.837 14.5672L19.5638 14.931C19.5456 14.931 19.5093 14.931 19.4911 14.9492C19.4911 15.0584 19.6729 15.4404 19.9093 15.7678L20.0002 15.8951L14.8359 20.5699C13.963 21.1702 12.9811 21.4794 11.9445 21.4794C11.4717 21.4794 11.0171 21.4248 10.5443 21.2975C8.87137 20.8427 7.5439 19.5513 7.05292 17.9142C6.58013 16.2953 6.8529 14.6218 7.83486 13.3121C8.79863 12.0207 10.3261 11.2567 11.9264 11.2567C12.8174 11.2567 13.6902 11.4932 14.454 11.9297C14.5449 11.9843 14.5995 12.057 14.6177 12.1662C14.6358 12.2753 14.5995 12.3663 14.5085 12.439L11.6718 15.022C11.5627 15.1311 11.399 15.1311 11.2717 15.0402C10.8898 14.7491 10.6534 14.6582 10.5807 14.6582L9.83514 17.8596C9.81696 17.9687 9.83514 18.0779 9.90788 18.1506C9.98062 18.2416 10.0897 18.278 10.1988 18.2598L13.472 17.896C13.5266 17.896 13.563 17.8778 13.5993 17.8414C13.5993 17.7687 13.5084 17.5686 13.1811 17.1684C13.072 17.0411 13.0902 16.8592 13.2175 16.7318L18.1636 12.2026C18.1818 12.1844 18.1818 12.1844 18.2 12.1844C19.0728 11.5659 20.0912 11.2203 21.1641 11.2203C22.7643 11.2203 24.2918 11.9843 25.2556 13.2758C26.2375 14.6036 26.5285 16.2953 26.0557 17.896Z" fill="url(#paint0_linear_1852_699)"/>
<defs>
<linearGradient id="paint0_linear_1852_699" x1="11.4704" y1="9.65231" x2="25.0504" y2="22.8337" gradientUnits="userSpaceOnUse">
<stop stop-color="#13E6C0"/>
<stop offset="0.509176" stop-color="#5D98F0"/>
<stop offset="1" stop-color="#E020F1"/>
</linearGradient>
</defs>
</svg>
