<svg width="28" height="29" viewBox="0 0 28 29" fill="none" xmlns="http://www.w3.org/2000/svg">
<circle cx="13.9912" cy="14.5811" r="14.001" fill="#171717"/>
<path d="M24.6162 11.9766C23.9791 10.2328 22.6042 8.85791 20.8269 8.204C18.4962 7.34887 16.0818 7.66745 14.1703 9.07589L13.9859 9.21002L13.8853 9.14295C11.9738 7.66745 9.50907 7.33211 7.16168 8.204C5.40113 8.85791 4.02623 10.216 3.37231 11.9598C2.53396 14.2066 2.78546 16.5876 4.09329 18.4655C5.38436 20.3266 7.48025 21.4332 9.72704 21.4332C11.3535 21.4332 12.5942 21.0141 13.8853 20.0248C13.9188 20.008 13.9524 19.9913 13.9691 19.9913C14.0362 19.9913 14.0865 20.0416 14.1871 20.0919C15.4446 20.9805 16.8028 21.4332 18.228 21.4332C20.5251 21.4332 22.5874 20.3937 23.8617 18.5661C25.1863 16.6882 25.4546 14.2905 24.6162 11.9766ZM22.7551 16.0007C22.3191 17.493 21.1119 18.6667 19.6196 19.1026C18.3453 19.4547 17.0375 19.3038 15.9309 18.6667C15.847 18.6164 15.7967 18.5493 15.7967 18.4487C15.78 18.3481 15.8135 18.2643 15.8973 18.1972L18.4124 15.9001C18.513 15.7995 18.6807 15.7995 18.7813 15.8833C19.1334 16.1516 19.3514 16.2522 19.4352 16.2522L20.1227 13.3012C20.1394 13.2006 20.1227 13.1 20.0556 13.0329C19.9885 12.9491 19.8879 12.9156 19.7873 12.9323L16.7692 13.2677C16.7525 13.2677 16.7189 13.2677 16.7022 13.2844C16.7022 13.385 16.8698 13.7371 17.0878 14.039L17.1716 14.1563L12.4098 18.4655C11.605 19.0188 10.6995 19.3038 9.74381 19.3038C9.30787 19.3038 8.88869 19.2535 8.45274 19.1362C6.91017 18.717 5.68617 17.5265 5.23346 16.0175C4.79751 14.5252 5.04902 12.9826 5.95445 11.7754C6.8431 10.5849 8.25154 9.88071 9.72704 9.88071C10.5486 9.88071 11.3535 10.0987 12.0577 10.5011C12.1415 10.5514 12.1918 10.6185 12.2086 10.7191C12.2253 10.8197 12.1918 10.9035 12.108 10.9706L9.49231 13.3515C9.3917 13.4521 9.2408 13.4521 9.12343 13.3683C8.77132 13.1 8.55335 13.0162 8.48628 13.0162L7.79883 15.9672C7.78206 16.0678 7.79883 16.1684 7.86589 16.2354C7.93296 16.3193 8.03357 16.3528 8.13417 16.336L11.1522 16.0007C11.2026 16.0007 11.2361 15.9839 11.2696 15.9504C11.2696 15.8833 11.1858 15.6989 10.884 15.33C10.7834 15.2126 10.8001 15.045 10.9175 14.9276L15.4782 10.7526C15.4949 10.7358 15.4949 10.7358 15.5117 10.7358C16.3165 10.1657 17.2555 9.84717 18.2447 9.84717C19.7202 9.84717 21.1287 10.5514 22.0173 11.7419C22.9228 12.9659 23.191 14.5252 22.7551 16.0007Z" fill="url(#paint0_linear_576_718)"/>
<defs>
<linearGradient id="paint0_linear_576_718" x1="9.3066" y1="8.40182" x2="21.8246" y2="20.5559" gradientUnits="userSpaceOnUse">
<stop stop-color="#13E6C0"/>
<stop offset="0.509176" stop-color="#5D98F0"/>
<stop offset="1" stop-color="#E020F1"/>
</linearGradient>
</defs>
</svg>
