<svg width="21" height="22" viewBox="0 0 21 22" fill="none" xmlns="http://www.w3.org/2000/svg">
<circle cx="10.5" cy="11.4395" r="10" stroke="#30C2E2"/>
<path d="M10.5418 17.3634C8.9489 17.3634 7.59516 16.7875 6.48053 15.6357C5.36591 14.484 4.80859 13.0851 4.80859 11.4391C4.80859 9.9388 5.28158 8.63793 6.22756 7.53651C7.17353 6.43508 8.34501 5.78489 9.74199 5.58594C9.78069 5.58594 9.81867 5.58742 9.85594 5.59038C9.89321 5.59334 9.92975 5.59754 9.96559 5.60297C9.72384 5.95151 9.53249 6.33906 9.39155 6.76561C9.25061 7.19216 9.18014 7.63919 9.18014 8.10672C9.18014 9.42339 9.6259 10.5423 10.5174 11.4636C11.4089 12.3848 12.492 12.8457 13.7667 12.8461C14.221 12.8461 14.6541 12.7733 15.066 12.6277C15.4778 12.482 15.8476 12.2843 16.1753 12.0345C16.1811 12.0715 16.1851 12.1093 16.1875 12.1478C16.1899 12.1863 16.1913 12.2256 16.1918 12.2656C16.0084 13.7086 15.3837 14.9189 14.3178 15.8964C13.2519 16.8739 11.9937 17.3629 10.5418 17.3634Z" fill="#30C2E2"/>
</svg>
